#!OML:ASF X:\2005_08_12_Meinard\c3d\meinard.ASF
:FULLY-SPECIFIED
:DEGREES
383
root 0.026619 17.1672 -4.7679 -14.9933 -67.636 4.52917
lowerback 37.7789 -3.9365 -2.15899
upperback 5.14786 -6.57455 -1.24124
thorax -12.8083 -3.09014 2.66003
lowerneck -0.34033 -14.4589 -1.86809
upperneck -24.5777 -18.1704 16.3023
head -5.62247 -10.4114 6.12207
rclavicle 9.14409e-015 2.74323e-014
rhumerus 35.4505 31.2176 51.1455
rradius 30.6023
rwrist -65.8106
rhand -21.6645 -1.9317
rfingers 7.12502
rthumb 4.7327 -31.8588
lclavicle 9.14409e-015 2.74323e-014
lhumerus -2.09242 -24.7693 71.3382
lradius 89.3489
lwrist 10.3808
lhand -15.4505 -12.2898
lfingers 7.12502
lthumb 10.7302 17.4162
rfemur -1.16181 -16.0122 19.8861
rtibia 31.3481
rfoot -19.6042 -4.67285
rtoes -3.82805
lfemur 8.96217 -5.46541 -8.13265
ltibia 27.4483
lfoot -6.67606 14.417
ltoes -29.9154
384
root 0.0305787 17.1693 -4.75869 -14.8306 -67.7115 4.37155
lowerback 37.7069 -3.89983 -2.10563
upperback 5.1812 -6.50317 -1.22525
thorax -12.7497 -3.06391 2.61342
lowerneck -0.216954 -14.4093 -1.99144
upperneck -24.8121 -18.0771 16.4693
head -5.69338 -10.3833 6.21861
rclavicle -4.55217e-014 2.38542e-014
rhumerus 34.9682 30.7187 50.2844
rradius 30.3622
rwrist -62.7466
rhand -20.6408 -0.812559
rfingers 7.12502
rthumb 5.72118 -30.7153
lclavicle -4.55217e-014 2.38542e-014
lhumerus -3.01732 -24.6434 71.5411
lradius 88.6153
lwrist 11.0261
lhand -15.6875 -11.7637
lfingers 7.12502
lthumb 10.5017 17.954
rfemur -1.12554 -15.998 19.9305
rtibia 31.2215
rfoot -19.4954 -4.62336
rtoes -3.86249
lfemur 8.85146 -5.45827 -8.13785
ltibia 27.5089
lfoot -6.85849 14.2701
ltoes -30.0002
385
root 0.034143 17.1714 -4.74881 -14.6461 -67.7917 4.18596
lowerback 37.6247 -3.86166 -2.03548
upperback 5.22382 -6.42584 -1.22629
thorax -12.6805 -3.03645 2.53635
lowerneck -0.067249 -14.3664 -2.06043
upperneck -25.0533 -17.9913 16.6204
head -5.77826 -10.3622 6.30751
rclavicle -5.76476e-015 1.43125e-014
rhumerus 34.4368 30.1713 49.3156
rradius 30.1754
rwrist -60.3268
rhand -19.5922 0.104764
rfingers 7.12502
rthumb 6.73354 -29.7682
lclavicle -5.76476e-015 1.43125e-014
lhumerus -3.84844 -24.5305 71.6918
lradius 87.9689
lwrist 11.3959
lhand -15.883 -11.2749
lfingers 7.12502
lthumb 10.313 18.4522
rfemur -1.08352 -15.9556 19.9828
rtibia 31.0979
rfoot -19.3965 -4.58239
rtoes -3.84481
lfemur 8.76245 -5.41396 -8.12041
ltibia 27.5653
lfoot -7.03866 14.1629
ltoes -30.2835
386
root 0.038156 17.1737 -4.73829 -14.4909 -67.8582 4.0376
lowerback 37.5365 -3.82216 -1.99353
upperback 5.26545 -6.35704 -1.22163
thorax -12.6064 -3.01168 2.48334
lowerneck 0.0765566 -14.3265 -2.16176
upperneck -25.2661 -17.9067 16.8024
head -5.84626 -10.3409 6.40651
rclavicle 4.57205e-014 3.4191e-014
rhumerus 33.9939 29.6492 48.499
rradius 30.0502
rwrist -58.8241
rhand -18.5402 0.798726
rfingers 7.12502
rthumb 7.74897 -29.0393
lclavicle 4.57205e-014 3.4191e-014
lhumerus -4.62915 -24.3619 71.8581
lradius 87.4521
lwrist 11.5189
lhand -15.9467 -10.8486
lfingers 7.12502
lthumb 10.2516 18.8815
rfemur -1.05402 -15.9441 20.0136
rtibia 30.9857
rfoot -19.2937 -4.53461
rtoes -3.8071
lfemur 8.66692 -5.39973 -8.13958
ltibia 27.622
lfoot -7.20035 14.1132
ltoes -30.5038
387
root 0.0422604 17.176 -4.72684 -14.2835 -67.9476 3.84054
lowerback 37.4379 -3.76999 -1.92955
upperback 5.3007 -6.26338 -1.21872
thorax -12.5388 -2.976 2.40659
lowerneck 0.261271 -14.3047 -2.26049
upperneck -25.4618 -17.8458 16.9779
head -5.91475 -10.3301 6.50582
rclavicle 4.75095e-014 -6.36111e-015
rhumerus 33.5086 29.1265 47.6456
rradius 30.0054
rwrist -58.1756
rhand -17.5184 1.21815
rfingers 7.12502
rthumb 8.73509 -28.5811
lclavicle 4.75095e-014 -6.36111e-015
lhumerus -5.33692 -24.2443 71.9817
lradius 87.088
lwrist 11.3812
lhand -15.8627 -10.4091
lfingers 7.12502
lthumb 10.3326 19.317
rfemur -1.04014 -15.8594 20.0797
rtibia 30.8973
rfoot -19.204 -4.52473
rtoes -3.78887
lfemur 8.57988 -5.36154 -8.12758
ltibia 27.664
lfoot -7.38179 14.1144
ltoes -30.665
388
root 0.0471982 17.1785 -4.7152 -14.1086 -67.9985 3.67011
lowerback 37.3536 -3.72 -1.89399
upperback 5.33928 -6.18222 -1.20174
thorax -12.4678 -2.94483 2.36552
lowerneck 0.42275 -14.2882 -2.37841
upperneck -25.6313 -17.7959 17.1432
head -5.96921 -10.3209 6.60015
rclavicle 4.23411e-014 1.59028e-015
rhumerus 33.0238 28.5483 46.8065
rradius 30.0383
rwrist -58.3854
rhand -16.638 1.26711
rfingers 7.12502
rthumb 9.58459 -28.4949
lclavicle 4.23411e-014 1.59028e-015
lhumerus -6.01983 -24.0603 72.1627
lradius 86.8512
lwrist 10.8733
lhand -15.701 -10.0883
lfingers 7.12502
lthumb 10.4886 19.63
rfemur -1.02947 -15.8226 20.1196
rtibia 30.8229
rfoot -19.1252 -4.51476
rtoes -3.84108
lfemur 8.5001 -5.36737 -8.14933
ltibia 27.7022
lfoot -7.55044 14.1836
ltoes -30.6818
389
root 0.051871 17.1806 -4.70246 -13.9431 -68.0569 3.52294
lowerback 37.2453 -3.66743 -1.83525
upperback 5.37543 -6.09258 -1.2174
thorax -12.3968 -2.91064 2.27298
lowerneck 0.575564 -14.2994 -2.47287
upperneck -25.732 -17.7845 17.3011
head -5.99993 -10.3281 6.68191
rclavicle 9.34288e-015 3.57812e-015
rhumerus 32.5909 28.163 46.1249
rradius 30.1463
rwrist -59.5971
rhand -15.9911 0.963862
rfingers 7.12502
rthumb 10.2088 -28.7684
lclavicle 9.34288e-015 3.57812e-015
lhumerus -6.61915 -23.913 72.2802
lradius 86.6876
lwrist 10.1195
lhand -15.4183 -9.79404
lfingers 7.12502
lthumb 10.7613 19.9103
rfemur -1.04863 -15.7979 20.1494
rtibia 30.7714
rfoot -19.0438 -4.49948
rtoes -3.96324
lfemur 8.42796 -5.38907 -8.19219
ltibia 27.7368
lfoot -7.7881 14.3163
ltoes -30.7035
